<svg width="32" height="39" viewBox="0 0 32 39" fill="none" xmlns="http://www.w3.org/2000/svg">
<path d="M27.3138 27.3136L16 38.6274L4.68623 27.3136C2.44861 25.076 0.924776 22.2251 0.307428 19.1214C-0.309919 16.0177 0.00694549 12.8006 1.21795 9.87702C2.42896 6.95341 4.47972 4.45456 7.1109 2.69647C9.74208 0.938378 12.8355 0 16 0C19.1645 0 22.2579 0.938378 24.8891 2.69647C27.5203 4.45456 29.571 6.95341 30.782 9.87702C31.9931 12.8006 32.3099 16.0177 31.6926 19.1214C31.0752 22.2251 29.5514 25.076 27.3138 27.3136Z" fill="#028EFF"/>
<path d="M16 9C20.5562 9 24.25 12.6938 24.25 17.25V21H22V17.25C22 15.6912 21.3933 14.1936 20.3084 13.0742C19.2235 11.9549 17.7456 11.3017 16.1875 11.253L16 11.25C14.4412 11.25 12.9436 11.8567 11.8242 12.9416C10.7049 14.0265 10.0517 15.5044 10.003 17.0625L10 17.25V21H7.75V17.25C7.75 12.6938 11.4438 9 16 9ZM16 12C17.3924 12 18.7277 12.5531 19.7123 13.5377C20.6969 14.5223 21.25 15.8576 21.25 17.25V21H19V17.25C19 16.4803 18.7042 15.7401 18.1737 15.1824C17.6432 14.6247 16.9187 14.2922 16.15 14.2537L16 14.25C15.2303 14.25 14.4901 14.5458 13.9324 15.0763C13.3747 15.6068 13.0422 16.3313 13.0037 17.1L13 17.25V21H10.75V17.25C10.75 15.8576 11.3031 14.5223 12.2877 13.5377C13.2723 12.5531 14.6076 12 16 12ZM16 15C16.5967 15 17.169 15.2371 17.591 15.659C18.0129 16.081 18.25 16.6533 18.25 17.25V21H13.75V17.25C13.75 16.6533 13.9871 16.081 14.409 15.659C14.831 15.2371 15.4033 15 16 15Z" fill="white"/>
</svg>
