<svg width="32" height="39" viewBox="0 0 32 39" fill="none" xmlns="http://www.w3.org/2000/svg">
<path d="M27.3138 27.3136L16 38.6274L4.68623 27.3136C2.44861 25.076 0.924776 22.2251 0.307428 19.1214C-0.309919 16.0177 0.00694549 12.8006 1.21795 9.87702C2.42896 6.95341 4.47972 4.45456 7.1109 2.69647C9.74208 0.938378 12.8355 0 16 0C19.1645 0 22.2579 0.938378 24.8891 2.69647C27.5203 4.45456 29.571 6.95341 30.782 9.87702C31.9931 12.8006 32.3099 16.0177 31.6926 19.1214C31.0752 22.2251 29.5514 25.076 27.3138 27.3136Z" fill="#028EFF"/>
<path d="M8.5 20.25V12H7.75V10.5H10V9C10 8.80109 10.079 8.61032 10.2197 8.46967C10.3603 8.32902 10.5511 8.25 10.75 8.25H21.25C21.4489 8.25 21.6397 8.32902 21.7803 8.46967C21.921 8.61032 22 8.80109 22 9V10.5H24.25V12H23.5V20.25H24.25V21.75H7.75V20.25H8.5ZM16.75 20.25V15H15.25V20.25H16.75ZM13 20.25V15H11.5V20.25H13ZM20.5 20.25V15H19V20.25H20.5ZM11.5 9.75V10.5H20.5V9.75H11.5Z" fill="white"/>
</svg>
