<svg width="32" height="39" viewBox="0 0 32 39" fill="none" xmlns="http://www.w3.org/2000/svg">
<path d="M27.3138 27.3136L16 38.6274L4.68623 27.3136C2.44861 25.076 0.924776 22.2251 0.307428 19.1214C-0.309919 16.0177 0.00694549 12.8006 1.21795 9.87702C2.42896 6.95341 4.47972 4.45456 7.1109 2.69647C9.74208 0.938378 12.8355 0 16 0C19.1645 0 22.2579 0.938378 24.8891 2.69647C27.5203 4.45456 29.571 6.95341 30.782 9.87702C31.9931 12.8006 32.3099 16.0177 31.6926 19.1214C31.0752 22.2251 29.5514 25.076 27.3138 27.3136Z" fill="#028EFF"/>
<path d="M19 20.75L15.4285 14.2025L18.25 9.5L24.25 20.75H19ZM13 12.5L17.5 20.75H8.5L13 12.5ZM11.125 11C10.6277 11 10.1508 10.8025 9.79917 10.4508C9.44754 10.0992 9.25 9.62228 9.25 9.125C9.25 8.62772 9.44754 8.15081 9.79917 7.79917C10.1508 7.44754 10.6277 7.25 11.125 7.25C11.6223 7.25 12.0992 7.44754 12.4508 7.79917C12.8025 8.15081 13 8.62772 13 9.125C13 9.62228 12.8025 10.0992 12.4508 10.4508C12.0992 10.8025 11.6223 11 11.125 11Z" fill="white"/>
</svg>
