<svg width="28" height="216" viewBox="0 0 28 216" fill="none" xmlns="http://www.w3.org/2000/svg">
<path d="M5.5 9.9C4.84996 9.9 4.20628 9.77196 3.60572 9.5232C3.00516 9.27444 2.45947 8.90983 1.99982 8.45018C1.54017 7.99053 1.17556 7.44484 0.926796 6.84428C0.678035 6.24372 0.55 5.60004 0.55 4.95C0.55 4.29996 0.678035 3.65628 0.926796 3.05572C1.17556 2.45515 1.54017 1.90947 1.99982 1.44982C2.45947 0.990171 3.00516 0.625557 3.60572 0.376796C4.20628 0.128036 4.84996 -9.6864e-09 5.5 0C6.81282 1.95626e-08 8.07187 0.521516 9.00018 1.44982C9.92848 2.37813 10.45 3.63718 10.45 4.95C10.45 6.26282 9.92848 7.52187 9.00018 8.45018C8.07187 9.37848 6.81282 9.9 5.5 9.9V9.9ZM17.05 14.3C15.883 14.3 14.7639 13.8364 13.9387 13.0113C13.1136 12.1861 12.65 11.067 12.65 9.9C12.65 8.73305 13.1136 7.61389 13.9387 6.78873C14.7639 5.96357 15.883 5.5 17.05 5.5C18.217 5.5 19.3361 5.96357 20.1613 6.78873C20.9864 7.61389 21.45 8.73305 21.45 9.9C21.45 11.067 20.9864 12.1861 20.1613 13.0113C19.3361 13.8364 18.217 14.3 17.05 14.3ZM17.05 15.4C18.3628 15.4 19.6219 15.9215 20.5502 16.8498C21.4785 17.7781 22 19.0372 22 20.35V20.9H12.1V20.35C12.1 19.0372 12.6215 17.7781 13.5498 16.8498C14.4781 15.9215 15.7372 15.4 17.05 15.4V15.4ZM5.5 11C6.22227 11 6.93747 11.1423 7.60476 11.4187C8.27205 11.6951 8.87837 12.1002 9.38909 12.6109C9.89981 13.1216 10.3049 13.7279 10.5813 14.3952C10.8577 15.0625 11 15.7777 11 16.5V20.9H0V16.5C0 15.0413 0.579463 13.6424 1.61091 12.6109C2.64236 11.5795 4.04131 11 5.5 11V11Z" fill="#028EFF"/>
<path d="M11 53.9C12.4587 53.9 13.8576 54.4795 14.8891 55.5109C15.9205 56.5424 16.5 57.9413 16.5 59.4V66H5.5V59.4C5.5 57.9413 6.07946 56.5424 7.11091 55.5109C8.14236 54.4795 9.54131 53.9 11 53.9ZM3.6168 57.2066C3.44174 57.7971 3.33833 58.4064 3.3088 59.0216L3.3 59.4V66H1.00449e-07V61.05C-0.000216488 60.1013 0.349831 59.186 0.982998 58.4795C1.61617 57.7731 2.48787 57.3253 3.4309 57.222L3.6179 57.2066H3.6168ZM18.3832 57.2066C19.3621 57.2663 20.2814 57.6972 20.9535 58.4114C21.6256 59.1256 21.9999 60.0693 22 61.05V66H18.7V59.4C18.7 58.6377 18.59 57.9018 18.3832 57.2066ZM3.85 50.6C4.57935 50.6 5.27882 50.8897 5.79454 51.4055C6.31027 51.9212 6.6 52.6207 6.6 53.35C6.6 54.0793 6.31027 54.7788 5.79454 55.2945C5.27882 55.8103 4.57935 56.1 3.85 56.1C3.12065 56.1 2.42118 55.8103 1.90546 55.2945C1.38973 54.7788 1.1 54.0793 1.1 53.35C1.1 52.6207 1.38973 51.9212 1.90546 51.4055C2.42118 50.8897 3.12065 50.6 3.85 50.6V50.6ZM18.15 50.6C18.8793 50.6 19.5788 50.8897 20.0945 51.4055C20.6103 51.9212 20.9 52.6207 20.9 53.35C20.9 54.0793 20.6103 54.7788 20.0945 55.2945C19.5788 55.8103 18.8793 56.1 18.15 56.1C17.4207 56.1 16.7212 55.8103 16.2055 55.2945C15.6897 54.7788 15.4 54.0793 15.4 53.35C15.4 52.6207 15.6897 51.9212 16.2055 51.4055C16.7212 50.8897 17.4207 50.6 18.15 50.6V50.6ZM11 44C12.167 44 13.2861 44.4636 14.1113 45.2887C14.9364 46.1139 15.4 47.233 15.4 48.4C15.4 49.567 14.9364 50.6861 14.1113 51.5113C13.2861 52.3364 12.167 52.8 11 52.8C9.83305 52.8 8.71389 52.3364 7.88873 51.5113C7.06357 50.6861 6.6 49.567 6.6 48.4C6.6 47.233 7.06357 46.1139 7.88873 45.2887C8.71389 44.4636 9.83305 44 11 44V44Z" fill="#028EFF"/>
<path d="M13.9626 106.598C12.086 107.367 9.98742 107.394 8.09131 106.675C6.19519 105.955 4.64299 104.543 3.7486 102.723C2.85422 100.903 2.68439 98.8109 3.27345 96.8703C3.86252 94.9298 5.16653 93.2853 6.92177 92.2695C8.67923 91.2526 10.7576 90.942 12.7356 91.4007C14.7136 91.8595 16.4431 93.0532 17.5735 94.7398C18.704 96.4265 19.1508 98.4799 18.8233 100.484C18.4958 102.488 17.4186 104.292 15.81 105.531L16.9118 107.44L21.5305 104.773L22.5971 106.62L17.9785 109.287L20.1117 112.982L18.2643 114.049L16.131 110.354L11.5124 113.02L10.4457 111.173L15.0644 108.506L13.9626 106.598V106.598Z" fill="#028EFF"/>
<path d="M18.0469 144.066H12.7368V141.75H22V151.013H19.6842V145.703L15.5887 149.799C16.9248 151.55 17.5454 153.743 17.3248 155.935C17.1043 158.127 16.0591 160.153 14.401 161.603C12.7428 163.053 10.5955 163.819 8.39399 163.745C6.19245 163.672 4.10115 162.764 2.54356 161.206C0.985961 159.649 0.0784761 157.558 0.00485602 155.356C-0.0687641 153.154 0.696983 151.007 2.14704 149.349C3.5971 147.691 5.6231 146.646 7.8148 146.425C10.0065 146.205 12.2001 146.825 13.9515 148.161L18.0469 144.066Z" fill="#028EFF"/>
<g clip-path="url(#clip0)">
<path d="M12.1411 202.711C10.3165 203.459 8.27611 203.485 6.43253 202.786C4.58896 202.087 3.07977 200.713 2.21016 198.943C1.34056 197.174 1.17543 195.14 1.74818 193.253C2.32092 191.366 3.5888 189.767 5.29541 188.78C7.00416 187.791 9.02497 187.489 10.9481 187.935C12.8713 188.381 14.5529 189.542 15.652 191.182C16.7511 192.822 17.1855 194.818 16.8671 196.767C16.5487 198.715 15.5014 200.469 13.9374 201.674L15.0086 203.53L19.4993 200.937L20.5364 202.733L16.0457 205.326L18.1199 208.918L16.3236 209.955L14.2495 206.363L9.75881 208.956L8.72173 207.159L13.2124 204.567L12.1411 202.711V202.711Z" fill="#028EFF"/>
</g>
<path d="M17.4235 185.185H12.6675V183.111H20.9641V191.408H18.89V186.652L15.2218 190.32C16.4185 191.889 16.9743 193.853 16.7768 195.816C16.5793 197.779 15.6431 199.594 14.158 200.893C12.6729 202.191 10.7497 202.877 8.77785 202.811C6.80604 202.745 4.93297 201.932 3.5379 200.537C2.14284 199.142 1.33005 197.269 1.26411 195.297C1.19818 193.326 1.88402 191.402 3.18277 189.917C4.48151 188.432 6.2961 187.496 8.25911 187.299C10.2221 187.101 12.1868 187.657 13.7554 188.854L17.4235 185.185Z" fill="#028EFF"/>
<defs>
<clipPath id="clip0">
<rect width="24.8897" height="24.8897" fill="white" transform="translate(-6 194.104) rotate(-30)"/>
</clipPath>
</defs>
</svg>
