<svg width="32" height="39" viewBox="0 0 32 39" fill="none" xmlns="http://www.w3.org/2000/svg">
<path d="M27.3138 27.3136L16 38.6274L4.68623 27.3136C2.44861 25.076 0.924776 22.2251 0.307428 19.1214C-0.309919 16.0177 0.00694549 12.8006 1.21795 9.87702C2.42896 6.95341 4.47972 4.45456 7.1109 2.69647C9.74208 0.938378 12.8355 0 16 0C19.1645 0 22.2579 0.938378 24.8891 2.69647C27.5203 4.45456 29.571 6.95341 30.782 9.87702C31.9931 12.8006 32.3099 16.0177 31.6926 19.1214C31.0752 22.2251 29.5514 25.076 27.3138 27.3136Z" fill="#028EFF"/>
<path d="M16 20.25H17.5V10.5L22.2955 12.555C22.4305 12.6128 22.5455 12.7091 22.6263 12.8317C22.7071 12.9544 22.7501 13.0981 22.75 13.245V20.25H24.25V21.75H7.75V20.25H9.25V10.2375C9.24998 10.0923 9.29206 9.95034 9.37114 9.82867C9.45021 9.707 9.56289 9.61087 9.6955 9.55196L15.4727 6.98396C15.5299 6.95857 15.5925 6.94787 15.6548 6.95285C15.7172 6.95783 15.7773 6.97832 15.8297 7.01246C15.8821 7.0466 15.9251 7.0933 15.9549 7.14832C15.9846 7.20333 16.0001 7.26492 16 7.32746V20.25Z" fill="white"/>
</svg>
