<svg width="11" height="14" viewBox="0 0 11 14" fill="none" xmlns="http://www.w3.org/2000/svg">
<path d="M9.84211 13H1V1L9.84211 7.31579H4.47368L9.84211 13Z" fill="#D22F27" stroke="#1E50A0" stroke-width="0.736842" stroke-linecap="round" stroke-linejoin="round"/>
<path d="M3.52634 9.13888L3.90718 8.89478L4.11497 9.29646L4.56655 9.27562L4.54571 9.72751L4.94739 9.93499L4.70329 10.3158L4.94739 10.6967L4.54571 10.9041L4.56655 11.356L4.11497 11.3352L3.90718 11.7369L3.52634 11.4928L3.1455 11.7369L2.93802 11.3352L2.48613 11.356L2.50697 10.9041L2.10529 10.6967L2.34939 10.3158L2.10529 9.93499L2.50697 9.72751L2.48613 9.27562L2.93802 9.29646L3.1455 8.89478L3.52634 9.13888Z" fill="white" stroke="white" stroke-width="0.368421" stroke-linecap="round" stroke-linejoin="round"/>
<path d="M3.5255 5.73688C3.87431 5.73688 4.15708 5.45411 4.15708 5.1053C4.15708 4.75649 3.87431 4.47372 3.5255 4.47372C3.17669 4.47372 2.89392 4.75649 2.89392 5.1053C2.89392 5.45411 3.17669 5.73688 3.5255 5.73688Z" fill="white" stroke="white" stroke-width="0.368421" stroke-linecap="round" stroke-linejoin="round"/>
<path d="M4.78919 5.42105C4.64709 5.73684 4.24635 6.05263 3.52604 6.05263C2.80572 6.05263 2.40498 5.73684 2.26288 5.42105" stroke="white" stroke-width="0.552632" stroke-linecap="round" stroke-linejoin="round"/>
</svg>
