<svg width="32" height="39" viewBox="0 0 32 39" fill="none" xmlns="http://www.w3.org/2000/svg">
<path d="M27.3138 27.3136L16 38.6274L4.68623 27.3136C2.44861 25.076 0.924776 22.2251 0.307428 19.1214C-0.309919 16.0177 0.00694549 12.8006 1.21795 9.87702C2.42896 6.95341 4.47972 4.45456 7.1109 2.69647C9.74208 0.938378 12.8355 0 16 0C19.1645 0 22.2579 0.938378 24.8891 2.69647C27.5203 4.45456 29.571 6.95341 30.782 9.87702C31.9931 12.8006 32.3099 16.0177 31.6926 19.1214C31.0752 22.2251 29.5514 25.076 27.3138 27.3136Z" fill="#028EFF"/>
<path d="M20.3808 17.7442L20.5128 17.877L20.6463 17.7442C20.803 17.5875 20.989 17.4632 21.1937 17.3784C21.3985 17.2936 21.6179 17.25 21.8395 17.25C22.0611 17.25 22.2805 17.2936 22.4853 17.3784C22.69 17.4632 22.8761 17.5875 23.0328 17.7442C23.1895 17.9009 23.3138 18.087 23.3986 18.2917C23.4834 18.4965 23.527 18.7159 23.527 18.9375C23.527 19.1591 23.4834 19.3785 23.3986 19.5833C23.3138 19.788 23.1895 19.974 23.0328 20.1307L20.5128 22.65L17.9943 20.1307C17.6778 19.8143 17.5 19.3851 17.5 18.9375C17.5 18.4899 17.6778 18.0607 17.9943 17.7442C18.3107 17.4278 18.7399 17.25 19.1875 17.25C19.6351 17.25 20.0643 17.4278 20.3808 17.7442ZM16 16.5V22.5H10C10 20.9412 10.6067 19.4436 11.6916 18.3242C12.7765 17.2049 14.2544 16.5517 15.8125 16.503L16 16.5ZM16 6.75C18.4863 6.75 20.5 8.76375 20.5 11.25C20.5 13.7362 18.4863 15.75 16 15.75C13.5138 15.75 11.5 13.7362 11.5 11.25C11.5 8.76375 13.5138 6.75 16 6.75Z" fill="white"/>
</svg>
