<svg width="80" height="80" viewBox="0 0 80 80" fill="none" xmlns="http://www.w3.org/2000/svg">
<circle opacity="0.5" cx="40" cy="40" r="40" fill="#F9DFCC"/>
<path d="M39.0373 50.8641C39.3293 51.8446 39.7747 52.7599 40.3478 53.5802H29.1278C28.7712 53.5777 28.4298 53.435 28.1775 53.1829C27.9252 52.9309 27.7821 52.5897 27.7793 52.233V27.7668C27.7793 27.0226 28.3863 26.4197 29.136 26.4197H45.4336L52.2237 33.2098V39.5572C51.3648 39.149 50.4491 38.8729 49.5077 38.7383V34.5678H44.0756V29.1357H30.4953V50.8641H39.0373ZM48.1497 54.9382C46.3488 54.9382 44.6217 54.2228 43.3483 52.9494C42.0749 51.676 41.3595 49.9489 41.3595 48.1481C41.3595 46.3472 42.0749 44.6201 43.3483 43.3467C44.6217 42.0733 46.3488 41.3579 48.1497 41.3579C49.9505 41.3579 51.6776 42.0733 52.951 43.3467C54.2244 44.6201 54.9398 46.3472 54.9398 48.1481C54.9398 49.9489 54.2244 51.676 52.951 52.9494C51.6776 54.2228 49.9505 54.9382 48.1497 54.9382ZM46.3937 51.8256C47.1542 52.1894 48.0087 52.3084 48.8396 52.1662C49.6705 52.0239 50.4368 51.6274 51.0329 51.0313C51.629 50.4352 52.0255 49.6689 52.1678 48.838C52.31 48.0071 52.191 47.1526 51.8272 46.3921L46.3937 51.8242V51.8256ZM44.4721 49.904L49.9056 44.4719C49.1452 44.1081 48.2906 43.9891 47.4597 44.1313C46.6288 44.2736 45.8625 44.6701 45.2664 45.2662C44.6703 45.8622 44.2738 46.6286 44.1316 47.4595C43.9893 48.2904 44.1083 49.1449 44.4721 49.9054V49.904Z" fill="#F9AA70"/>
</svg>
