<svg width="32" height="39" viewBox="0 0 32 39" fill="none" xmlns="http://www.w3.org/2000/svg">
<path d="M27.3138 27.3136L16 38.6274L4.68623 27.3136C2.44861 25.076 0.924776 22.2251 0.307428 19.1214C-0.309919 16.0177 0.00694549 12.8006 1.21795 9.87702C2.42896 6.95341 4.47972 4.45456 7.1109 2.69647C9.74208 0.938378 12.8355 0 16 0C19.1645 0 22.2579 0.938378 24.8891 2.69647C27.5203 4.45456 29.571 6.95341 30.782 9.87702C31.9931 12.8006 32.3099 16.0177 31.6926 19.1214C31.0752 22.2251 29.5514 25.076 27.3138 27.3136Z" fill="#028EFF"/>
<path d="M8.5 21H23.5V22.5H8.5V21ZM10 15H11.5V20.25H10V15ZM13.75 15H15.25V20.25H13.75V15ZM16.75 15H18.25V20.25H16.75V15ZM20.5 15H22V20.25H20.5V15ZM8.5 11.25L16 7.5L23.5 11.25V14.25H8.5V11.25ZM16 12C16.1989 12 16.3897 11.921 16.5303 11.7803C16.671 11.6397 16.75 11.4489 16.75 11.25C16.75 11.0511 16.671 10.8603 16.5303 10.7197C16.3897 10.579 16.1989 10.5 16 10.5C15.8011 10.5 15.6103 10.579 15.4697 10.7197C15.329 10.8603 15.25 11.0511 15.25 11.25C15.25 11.4489 15.329 11.6397 15.4697 11.7803C15.6103 11.921 15.8011 12 16 12Z" fill="white"/>
</svg>
