<svg width="32" height="39" viewBox="0 0 32 39" fill="none" xmlns="http://www.w3.org/2000/svg">
<path d="M27.3138 27.3136L16 38.6274L4.68623 27.3136C2.44861 25.076 0.924776 22.2251 0.307428 19.1214C-0.309919 16.0177 0.00694549 12.8006 1.21795 9.87702C2.42896 6.95341 4.47972 4.45456 7.1109 2.69647C9.74208 0.938378 12.8355 0 16 0C19.1645 0 22.2579 0.938378 24.8891 2.69647C27.5203 4.45456 29.571 6.95341 30.782 9.87702C31.9931 12.8006 32.3099 16.0177 31.6926 19.1214C31.0752 22.2251 29.5514 25.076 27.3138 27.3136Z" fill="#028EFF"/>
<path d="M23.5 22V23.5H8.5V22H9.25V16.9315C8.78828 16.6233 8.40978 16.2059 8.14811 15.7163C7.88645 15.2267 7.74969 14.6801 7.75 14.125C7.75 13.5047 7.918 12.907 8.22475 12.3977L10.2588 8.875C10.3246 8.76099 10.4193 8.66631 10.5333 8.60049C10.6473 8.53466 10.7766 8.5 10.9083 8.5H21.0925C21.2241 8.5 21.3535 8.53466 21.4675 8.60049C21.5815 8.66631 21.6762 8.76099 21.742 8.875L23.7685 12.3865C24.2159 13.1297 24.3597 14.0166 24.1701 14.8631C23.9804 15.7096 23.4718 16.4504 22.75 16.9315V22H23.5ZM11.3418 10L9.517 13.1597C9.33968 13.5979 9.33436 14.0868 9.5021 14.5286C9.66984 14.9705 9.99826 15.3327 10.4216 15.5428C10.845 15.7529 11.3321 15.7953 11.7854 15.6616C12.2388 15.5279 12.6249 15.228 12.8665 14.8217C13.1178 14.194 14.0065 14.194 14.2585 14.8217C14.3975 15.1701 14.6377 15.4687 14.9481 15.6791C15.2586 15.8895 15.625 16.0019 16 16.0019C16.375 16.0019 16.7414 15.8895 17.0519 15.6791C17.3623 15.4687 17.6025 15.1701 17.7415 14.8217C17.9928 14.194 18.8815 14.194 19.1335 14.8217C19.2308 15.0613 19.3767 15.2782 19.5619 15.4587C19.747 15.6392 19.9676 15.7795 20.2096 15.8706C20.4515 15.9618 20.7098 16.0019 20.968 15.9885C21.2263 15.9751 21.479 15.9084 21.7102 15.7926C21.9414 15.6768 22.1462 15.5144 22.3117 15.3156C22.4771 15.1169 22.5997 14.8861 22.6716 14.6377C22.7435 14.3893 22.7633 14.1287 22.7297 13.8723C22.6961 13.6159 22.6098 13.3692 22.4762 13.1477L20.6575 10H11.3425H11.3418Z" fill="white"/>
</svg>
