<svg width="32" height="39" viewBox="0 0 32 39" fill="none" xmlns="http://www.w3.org/2000/svg">
<path d="M27.3138 27.3136L16 38.6274L4.68623 27.3136C2.44861 25.076 0.924776 22.2251 0.307428 19.1214C-0.309919 16.0177 0.00694549 12.8006 1.21795 9.87702C2.42896 6.95341 4.47972 4.45456 7.1109 2.69647C9.74208 0.938378 12.8355 0 16 0C19.1645 0 22.2579 0.938378 24.8891 2.69647C27.5203 4.45456 29.571 6.95341 30.782 9.87702C31.9931 12.8006 32.3099 16.0177 31.6926 19.1214C31.0752 22.2251 29.5514 25.076 27.3138 27.3136Z" fill="#028EFF"/>
<path d="M19.75 20.25H21.25V14.25H16.75V20.25H18.25V15.75H19.75V20.25ZM9.25 20.25V9C9.25 8.80109 9.32902 8.61032 9.46967 8.46967C9.61032 8.32902 9.80109 8.25 10 8.25H20.5C20.6989 8.25 20.8897 8.32902 21.0303 8.46967C21.171 8.61032 21.25 8.80109 21.25 9V12.75H22.75V20.25H23.5V21.75H8.5V20.25H9.25ZM12.25 14.25V15.75H13.75V14.25H12.25ZM12.25 17.25V18.75H13.75V17.25H12.25ZM12.25 11.25V12.75H13.75V11.25H12.25Z" fill="white"/>
</svg>
