<svg width="32" height="39" viewBox="0 0 32 39" fill="none" xmlns="http://www.w3.org/2000/svg">
<path d="M27.3138 27.3136L16 38.6274L4.68623 27.3136C2.44861 25.076 0.924776 22.2251 0.307428 19.1214C-0.309919 16.0177 0.00694549 12.8006 1.21795 9.87702C2.42896 6.95341 4.47972 4.45456 7.1109 2.69647C9.74208 0.938378 12.8355 0 16 0C19.1645 0 22.2579 0.938378 24.8891 2.69647C27.5203 4.45456 29.571 6.95341 30.782 9.87702C31.9931 12.8006 32.3099 16.0177 31.6926 19.1214C31.0752 22.2251 29.5514 25.076 27.3138 27.3136Z" fill="#028EFF"/>
<path d="M22.75 9.25V10.75C22.75 17.9703 18.7203 21.25 13.75 21.25H12.3235C12.4825 18.991 13.186 17.6237 15.022 15.9992C15.925 15.2005 15.8485 14.7393 15.4037 15.004C12.3407 16.8265 10.8197 19.2895 10.7522 23.2225L10.75 23.5H9.25C9.25 22.4777 9.337 21.55 9.5095 20.701C9.337 19.7305 9.25 18.4135 9.25 16.75C9.25 12.6078 12.6078 9.25 16.75 9.25C18.25 9.25 19.75 10 22.75 9.25Z" fill="white"/>
</svg>
