<svg width="32" height="39" viewBox="0 0 32 39" fill="none" xmlns="http://www.w3.org/2000/svg">
<path d="M27.3138 27.3136L16 38.6274L4.68623 27.3136C2.44861 25.076 0.924776 22.2251 0.307428 19.1214C-0.309919 16.0177 0.00694549 12.8006 1.21795 9.87702C2.42896 6.95341 4.47972 4.45456 7.1109 2.69647C9.74208 0.938378 12.8355 0 16 0C19.1645 0 22.2579 0.938378 24.8891 2.69647C27.5203 4.45456 29.571 6.95341 30.782 9.87702C31.9931 12.8006 32.3099 16.0177 31.6926 19.1214C31.0752 22.2251 29.5514 25.076 27.3138 27.3136Z" fill="#028EFF"/>
<path d="M22.75 8.25V9.75C22.75 12.6495 20.3995 15 17.5 15H16.75V15.75H20.5V21C20.5 21.8287 19.8287 22.5 19 22.5H13C12.1712 22.5 11.5 21.8287 11.5 21V15.75H15.25V13.5C15.25 10.6005 17.6005 8.25 20.5 8.25H22.75ZM11.125 7.5C13.0217 7.5 14.6987 8.43825 15.718 9.87675C14.953 10.8825 14.5 12.1388 14.5 13.5V14.25H14.125C11.0185 14.25 8.5 11.7315 8.5 8.625V7.5H11.125Z" fill="white"/>
</svg>
