<svg width="32" height="39" viewBox="0 0 32 39" fill="none" xmlns="http://www.w3.org/2000/svg">
<path d="M27.3138 27.3136L16 38.6274L4.68623 27.3136C2.44861 25.076 0.924776 22.2251 0.307428 19.1214C-0.309919 16.0177 0.00694549 12.8006 1.21795 9.87702C2.42896 6.95341 4.47972 4.45456 7.1109 2.69647C9.74208 0.938378 12.8355 0 16 0C19.1645 0 22.2579 0.938378 24.8891 2.69647C27.5203 4.45456 29.571 6.95341 30.782 9.87702C31.9931 12.8006 32.3099 16.0177 31.6926 19.1214C31.0752 22.2251 29.5514 25.076 27.3138 27.3136Z" fill="#028EFF"/>
<path d="M22.75 13.5H15.25V19.0365C15.25 20.2087 15.8328 21.3038 16.8055 21.9555L17.6178 22.5H9.99475C9.79736 22.5 9.60804 22.4216 9.4684 22.2821C9.32875 22.1426 9.2502 21.9534 9.25 21.756V8.244C9.25 7.84125 9.58525 7.5 9.9985 7.5H18.9977L22.75 11.25V13.5ZM16.75 15H22.75V19.0365C22.75 19.7093 22.4155 20.337 21.8597 20.709L19.75 22.1243L17.6403 20.7105C17.3659 20.5261 17.1412 20.277 16.986 19.9852C16.8307 19.6933 16.7497 19.3678 16.75 19.0372V15Z" fill="white"/>
</svg>
